<svg width="31" height="31" viewBox="0 0 31 31" fill="none" xmlns="http://www.w3.org/2000/svg">
<circle cx="2.42596" cy="19.9074" r="2.12963" transform="rotate(-90 2.42596 19.9074)" fill="white" fill-opacity="0.5"/>
<circle cx="10.9444" cy="19.9074" r="2.12963" transform="rotate(-90 10.9444 19.9074)" fill="white" fill-opacity="0.5"/>
<circle cx="19.463" cy="19.9074" r="2.12963" transform="rotate(-90 19.463 19.9074)" fill="white" fill-opacity="0.5"/>
<circle cx="27.9815" cy="19.9074" r="2.12963" transform="rotate(-90 27.9815 19.9074)" fill="white" fill-opacity="0.5"/>
<circle cx="2.42596" cy="11.3889" r="2.12963" transform="rotate(-90 2.42596 11.3889)" fill="white" fill-opacity="0.5"/>
<circle cx="10.9444" cy="11.3889" r="2.12963" transform="rotate(-90 10.9444 11.3889)" fill="white" fill-opacity="0.5"/>
<circle cx="19.463" cy="11.3889" r="2.12963" transform="rotate(-90 19.463 11.3889)" fill="white" fill-opacity="0.5"/>
<circle cx="27.9815" cy="11.3889" r="2.12963" transform="rotate(-90 27.9815 11.3889)" fill="white" fill-opacity="0.5"/>
<circle cx="2.42596" cy="2.87037" r="2.12963" transform="rotate(-90 2.42596 2.87037)" fill="white" fill-opacity="0.5"/>
<circle cx="10.9444" cy="2.87037" r="2.12963" transform="rotate(-90 10.9444 2.87037)" fill="white" fill-opacity="0.5"/>
<circle cx="19.463" cy="2.87037" r="2.12963" transform="rotate(-90 19.463 2.87037)" fill="white" fill-opacity="0.5"/>
<circle cx="27.9815" cy="2.87037" r="2.12963" transform="rotate(-90 27.9815 2.87037)" fill="white" fill-opacity="0.5"/>
<circle cx="2.42596" cy="28.4259" r="2.12963" transform="rotate(-90 2.42596 28.4259)" fill="white" fill-opacity="0.5"/>
<circle cx="10.9444" cy="28.4259" r="2.12963" transform="rotate(-90 10.9444 28.4259)" fill="white" fill-opacity="0.5"/>
<circle cx="19.463" cy="28.4259" r="2.12963" transform="rotate(-90 19.463 28.4259)" fill="white" fill-opacity="0.5"/>
<circle cx="27.9815" cy="28.4259" r="2.12963" transform="rotate(-90 27.9815 28.4259)" fill="white" fill-opacity="0.5"/>
</svg>
