<svg width="15" height="15" viewBox="0 0 15 15" fill="none" xmlns="http://www.w3.org/2000/svg">
<path d="M12.3827 6.72927H13.5895C13.5895 3.63385 11.2525 1.29932 8.15289 1.29932V2.50611C10.6039 2.50611 12.3827 4.2819 12.3827 6.72927Z" fill="white"/>
<path d="M8.15894 4.91981C9.42788 4.91981 9.96912 5.46106 9.96912 6.73H11.1759C11.1759 4.78405 10.1049 3.71302 8.15894 3.71302V4.91981ZM10.2238 8.20409C10.1078 8.09871 9.95545 8.04251 9.79885 8.04735C9.64224 8.05219 9.49365 8.11769 9.38443 8.23004L7.94051 9.71499C7.59295 9.64862 6.89422 9.43079 6.17497 8.71336C5.45573 7.99351 5.2379 7.29296 5.17334 6.94782L6.65709 5.50329C6.76957 5.39416 6.83517 5.24554 6.84001 5.08889C6.84486 4.93224 6.78856 4.77985 6.68303 4.66397L4.45349 2.21238C4.34792 2.09614 4.2012 2.02563 4.04448 2.01583C3.88776 2.00602 3.7334 2.0577 3.61417 2.15988L2.3048 3.2828C2.20048 3.3875 2.13821 3.52684 2.12981 3.6744C2.12076 3.82525 1.94819 7.39856 4.71898 10.1706C7.13618 12.5872 10.164 12.7639 10.9979 12.7639C11.1198 12.7639 11.1946 12.7603 11.2145 12.7591C11.3621 12.7509 11.5013 12.6883 11.6055 12.5835L12.7278 11.2736C12.8301 11.1544 12.8819 11.0001 12.8722 10.8434C12.8625 10.6867 12.7921 10.5399 12.676 10.4342L10.2238 8.20409Z" fill="white"/>
</svg>
