<svg width="12" height="16" viewBox="0 0 12 16" fill="none" xmlns="http://www.w3.org/2000/svg">
<path d="M5.82405 15.5742C4.78654 14.6821 3.82486 13.7041 2.94906 12.6504C1.63478 11.068 0.0740669 8.71146 0.0740669 6.46585C0.0734969 5.319 0.410448 4.19775 1.04228 3.24401C1.67411 2.29028 2.57241 1.54692 3.62351 1.10801C4.6746 0.669105 5.83124 0.554385 6.94704 0.778368C8.06284 1.00235 9.08764 1.55497 9.89176 2.36628C10.4271 2.90356 10.8515 3.54253 11.1402 4.24622C11.429 4.9499 11.5764 5.70434 11.574 6.46585C11.574 8.71146 10.0133 11.068 8.69904 12.6504C7.82324 13.7041 6.86156 14.6821 5.82405 15.5742ZM5.82405 3.98177C5.17048 3.98177 4.54368 4.24348 4.08154 4.70934C3.6194 5.17519 3.35977 5.80703 3.35977 6.46585C3.35977 7.12467 3.6194 7.75651 4.08154 8.22236C4.54368 8.68822 5.17048 8.94993 5.82405 8.94993C6.47762 8.94993 7.10442 8.68822 7.56656 8.22236C8.0287 7.75651 8.28833 7.12467 8.28833 6.46585C8.28833 5.80703 8.0287 5.17519 7.56656 4.70934C7.10442 4.24348 6.47762 3.98177 5.82405 3.98177Z" fill="white"/>
</svg>
